<?xml version="1.0" encoding="UTF-8" standalone="no"?>
<!-- Created with Inkscape (http://www.inkscape.org/) -->

<svg
   width="180"
   height="180"
   viewBox="0 0 180 180"
   version="1.1"
   id="svg1"
   inkscape:export-filename="logo.svg"
   inkscape:export-xdpi="96"
   inkscape:export-ydpi="96"
   inkscape:version="1.3.1 (91b66b0783, 2023-11-16, custom)"
   sodipodi:docname="logo.svg"
   xmlns:inkscape="http://www.inkscape.org/namespaces/inkscape"
   xmlns:sodipodi="http://sodipodi.sourceforge.net/DTD/sodipodi-0.dtd"
   xmlns="http://www.w3.org/2000/svg"
   xmlns:svg="http://www.w3.org/2000/svg">
  <sodipodi:namedview
     id="namedview1"
     pagecolor="#ffffff"
     bordercolor="#000000"
     borderopacity="0.25"
     inkscape:showpageshadow="2"
     inkscape:pageopacity="0.0"
     inkscape:pagecheckerboard="0"
     inkscape:deskcolor="#d1d1d1"
     inkscape:document-units="px"
     inkscape:zoom="0.98994949"
     inkscape:cx="60.609153"
     inkscape:cy="123.23861"
     inkscape:window-width="1366"
     inkscape:window-height="708"
     inkscape:window-x="0"
     inkscape:window-y="0"
     inkscape:window-maximized="1"
     inkscape:current-layer="layer1" />
  <defs
     id="defs1" />
  <g
     inkscape:label="Layer 1"
     inkscape:groupmode="layer"
     id="layer1">
    <path
       style="fill:#00c864;fill-opacity:1"
       d="m 74.751288,61.114229 c 0.673435,0.168359 1.326144,0.505076 2.020305,0.505076 0.376462,0 0.643699,-0.418852 1.010153,-0.505076 3.126453,-0.735636 10.780362,-2.481941 14.647212,-1.515229 2.911978,0.727995 10.335362,11.16637 11.111682,12.121831 2.33805,2.877611 4.64277,5.784415 7.07106,8.586296 2.78199,3.209985 8.56291,8.011065 10.10153,12.626907 0.42592,1.277753 0,2.69374 0,4.04061 0,7.336646 0.43437,7.632396 -1.51523,15.152286 -0.68951,2.65954 -2.20393,7.49003 -5.05076,9.09138 -2.17186,1.22167 -8.39792,1.17375 -10.6066,1.01015 -2.70729,-0.20054 -5.567158,0.0141 -8.081225,-1.01015 -2.215979,-0.90281 -3.826681,-2.89171 -5.555839,-4.54569 -2.152439,-2.05886 -4.386035,-4.10293 -6.060915,-6.56599 -2.740576,-4.03026 -2.445363,-6.751 -3.535534,-11.111681 -0.25825,-1.033002 -0.88574,-1.972956 -1.010152,-3.030457 -0.216384,-1.839262 0,-3.703893 0,-5.555839 0,-1.851947 -0.532153,-3.781996 0,-5.555839 1.60399,-5.346635 6.695785,-5.685633 10.101525,-9.091373"
       id="path2" />
    <circle
       style="fill:#00c864;fill-opacity:1;stroke-width:1.02397"
       id="path1"
       cx="-89.918427"
       cy="89.642853"
       r="83.928574"
       transform="scale(-1,1)" />
    <path
       style="fill:#ffffff;fill-opacity:1;stroke-width:1.062;stroke-dasharray:none"
       id="path3"
       d="m 102.7739,46.892943 c -2.57039,2.756465 -4.753287,5.853116 -7.074601,8.819114 -1.189889,1.520353 -2.413203,3.014249 -3.619805,4.521373 -7.972906,8.951205 0.0275,0.09484 -7.383089,7.964819 -0.866244,0.919942 -1.83091,1.767561 -2.542379,2.811824 -0.471407,0.691912 -1.406586,1.61718 -0.955846,2.32273 8.301374,12.994283 6.920894,11.568958 15.50671,15.717779 1.748458,0.877084 3.50266,1.742828 5.24539,2.63126 1.49699,0.763155 8.15229,4.099479 9.63722,5.35042 1.16728,0.983339 4.26494,4.237448 2.90975,3.535368 -9.01623,-4.670944 -6.82262,-10.172 -8.07078,-0.872827 -0.79621,1.666027 -1.43968,3.414057 -2.3886,4.998057 -2.82344,4.71313 -6.892391,8.6507 -12.055953,10.68469 -4.855788,1.91274 -7.294724,1.69964 -12.494901,2.11436 -5.743932,-0.14942 -11.530711,-0.74569 -17.108624,-2.18649 -2.178292,-0.56265 -4.543556,-1.2522 -6.28931,-2.79297 -0.628151,-0.5544 -1.008744,-1.33797 -1.513114,-2.00696 2.769618,2.49448 4.752036,6.36887 8.308854,7.48343 1.567301,0.49104 -0.346125,-3.29513 -0.14469,-4.92514 0.229671,-1.85851 0.724812,-3.69738 1.424894,-5.43426 1.358481,-3.37034 3.637219,-6.32921 6.133973,-8.916149 1.083172,-1.122288 2.32999,-2.074214 3.494983,-3.111318 1.228836,-0.787279 2.360201,-1.752938 3.68651,-2.361833 6.754102,-3.100777 14.810617,-1.508297 21.813283,-0.421157 0,0 -7.433996,-10.248606 -7.433996,-10.248606 v 0 c -1.957162,-0.244844 -3.910809,-0.519635 -5.871485,-0.734529 -5.68486,-0.623071 -11.801485,-1.448988 -17.209966,1.084778 -1.385982,0.649305 -2.507048,1.756382 -3.760572,2.634575 -1.124769,1.161883 -2.311081,2.267184 -3.374302,3.485627 -3.72508,4.268924 -6.958921,9.132152 -8.397769,14.689832 -0.39421,1.52267 -1.260658,3.26129 -0.585955,4.68209 2.498162,5.26076 6.471601,9.6842 9.707399,14.5263 0.60279,0.51091 1.12576,1.1347 1.80838,1.5327 1.701408,0.99203 4.16929,1.38675 6.021259,1.65939 5.500618,0.80999 11.084001,0.99363 16.633639,1.0527 5.416992,-0.32133 8.177725,-0.0617 13.283703,-1.95996 7.92279,-2.94537 11.71795,-9.14461 15.52093,-16.20614 0.43989,-1.72296 2.00373,-3.52747 1.31971,-5.1689 -0.43749,-1.04986 -7.89852,-14.308638 -12.71559,-17.792832 -1.298,-0.938842 -2.81914,-1.522613 -4.241676,-2.259227 -9.099888,-4.712069 -1.077575,-0.335922 -10.522656,-5.601466 -1.563772,-1.103122 -5.349123,-5.106465 -4.691317,-3.309369 1.276816,3.488208 4.054964,6.304897 6.730833,8.881243 0.587154,0.565314 -0.307063,-1.672734 -0.04571,-2.44476 0.408232,-1.205769 1.236767,-2.232025 1.979042,-3.266222 1.988407,-2.77041 4.84391,-5.760118 7.103404,-8.252334 4.03104,-3.870519 7.99994,-7.850499 12.63459,-11.009949 z" />
  </g>
</svg>
